<?xml version="1.0" encoding="UTF-8" standalone="no"?>
<!-- Created with Inkscape (http://www.inkscape.org/) -->

<svg
   width="571.85419mm"
   height="286.91135mm"
   viewBox="0 0 571.85419 286.91135"
   version="1.1"
   id="svg1"
   xml:space="preserve"
   inkscape:version="1.4 (e7c3feb100, 2024-10-09)"
   sodipodi:docname="workflow.svg"
   inkscape:export-filename="workflow.png"
   inkscape:export-xdpi="96"
   inkscape:export-ydpi="96"
   xmlns:inkscape="http://www.inkscape.org/namespaces/inkscape"
   xmlns:sodipodi="http://sodipodi.sourceforge.net/DTD/sodipodi-0.dtd"
   xmlns="http://www.w3.org/2000/svg"
   xmlns:svg="http://www.w3.org/2000/svg"><sodipodi:namedview
     id="namedview1"
     pagecolor="#ffffff"
     bordercolor="#000000"
     borderopacity="0.25"
     inkscape:showpageshadow="2"
     inkscape:pageopacity="0.0"
     inkscape:pagecheckerboard="0"
     inkscape:deskcolor="#d1d1d1"
     inkscape:document-units="mm"
     inkscape:zoom="0.53762977"
     inkscape:cx="1074.1593"
     inkscape:cy="547.77473"
     inkscape:window-width="2560"
     inkscape:window-height="1371"
     inkscape:window-x="0"
     inkscape:window-y="0"
     inkscape:window-maximized="1"
     inkscape:current-layer="layer1" /><defs
     id="defs1"><marker
       style="overflow:visible"
       id="ConcaveTriangle"
       refX="0"
       refY="0"
       orient="auto-start-reverse"
       inkscape:stockid="Concave triangle arrow"
       markerWidth="0.40000001"
       markerHeight="0.40000001"
       viewBox="0 0 1 1"
       inkscape:isstock="true"
       inkscape:collect="always"
       preserveAspectRatio="xMidYMid"><path
         transform="scale(0.7)"
         d="M -2,-4 9,0 -2,4 c 2,-2.33 2,-5.66 0,-8 z"
         style="fill:context-stroke;fill-rule:evenodd;stroke:none"
         id="path7" /></marker></defs><g
     inkscape:label="Layer 1"
     inkscape:groupmode="layer"
     id="layer1"
     transform="translate(49.528519,-33.22826)"><path
       style="fill:none;stroke:#666666;stroke-width:4.3;stroke-dasharray:none;marker-end:url(#ConcaveTriangle)"
       d="m 111.03864,95.562619 h 58.43232"
       id="path1" /><g
       id="g21"
       transform="translate(-8.285643,-11.755106)"
       style="fill:#666666"><path
         fill="#000000"
         fill-opacity="1"
         stroke-linejoin="round"
         d="m 234.49458,65.28623 c 2.08174,0 3.7693,0.750007 3.7693,1.675245 0,0.925241 -1.68756,1.675241 -3.7693,1.675241 -2.08174,0 -3.7693,-0.75 -3.7693,-1.675241 v 3.350491 c 0,0.92523 1.68756,1.67524 3.7693,1.67524 2.08174,0 3.7693,-0.75001 3.7693,-1.67524 v -2.6556 l 4.73206,1.35929 c 0.65016,-0.23679 1.48158,-0.37894 2.38772,-0.37894 2.08174,0 3.7693,0.75001 3.7693,1.67525 0,0.92523 -1.68756,1.67524 -3.7693,1.67524 -2.08174,0 -3.7693,-0.75001 -3.7693,-1.67524 v 3.35048 c 0,0.92524 1.68756,1.67525 3.7693,1.67525 2.08174,0 3.7693,-0.75001 3.7693,-1.67525 v -2.87823 l 4.18811,1.20299 v 13.40195 l -11.30145,11.33261 -22.20343,-6.30688 v -13.40195 l 11.36553,-11.385208 0.58541,0.168196 c 0.68518,-0.314359 1.64501,-0.509694 2.70745,-0.509694 z m -12.98314,12.202566 v 11.7267 l 19.2653,5.47236 v -11.72671 z m 30.15439,7.90036 v -11.72201 l -8.37622,8.39925 v 11.72671 l 8.38082,-8.40395 z m -8.37622,-5.86335 v -3.35049 c -9e-5,0.92524 -1.68764,1.67524 -3.7693,1.67524 -2.08174,0 -3.7693,-0.75 -3.7693,-1.67524 v 3.35049 c 0,0.92524 1.68756,1.67524 3.7693,1.67524 2.08166,0 3.7693,-0.75 3.7693,-1.67524 z m -10.88909,-3.35049 v -3.35049 c -8e-5,0.92524 -1.68764,1.67525 -3.7693,1.67525 -2.08174,0 -3.76929,-0.75001 -3.76929,-1.67525 v 3.35049 c 0,0.92524 1.68755,1.67524 3.76929,1.67524 2.08175,0 3.7693,-0.75 3.7693,-1.67524 z"
         id="path1-6"
         style="fill:#666666;stroke-width:2.78509" /><path
         fill="#000000"
         fill-opacity="1"
         stroke-linejoin="round"
         d="m 276.32557,81.003998 c 2.08174,0 3.7693,0.750007 3.7693,1.675245 0,0.925241 -1.68756,1.675241 -3.7693,1.675241 -2.08174,0 -3.7693,-0.75 -3.7693,-1.675241 v 3.350491 c 0,0.92523 1.68756,1.67524 3.7693,1.67524 2.08174,0 3.7693,-0.75001 3.7693,-1.67524 v -2.6556 l 4.73206,1.35929 c 0.65016,-0.23679 1.48158,-0.37894 2.38772,-0.37894 2.08174,0 3.7693,0.75001 3.7693,1.67525 0,0.92523 -1.68756,1.67524 -3.7693,1.67524 -2.08174,0 -3.7693,-0.75001 -3.7693,-1.67524 v 3.35048 c 0,0.92524 1.68756,1.67525 3.7693,1.67525 2.08174,0 3.7693,-0.75001 3.7693,-1.67525 v -2.87823 l 4.18811,1.20299 v 13.401946 l -11.30145,11.33261 -22.20343,-6.30687 V 92.730704 l 11.36553,-11.385208 0.58541,0.168196 c 0.68518,-0.314359 1.64501,-0.509694 2.70745,-0.509694 z m -12.98314,12.202566 v 11.726706 l 19.2653,5.47235 V 98.678914 Z m 30.15439,7.900356 V 89.384914 l -8.37622,8.39925 v 11.726716 l 8.38082,-8.40396 z m -8.37622,-5.863346 v -3.35049 c -9e-5,0.92524 -1.68764,1.67524 -3.7693,1.67524 -2.08174,0 -3.7693,-0.75 -3.7693,-1.67524 v 3.35049 c 0,0.92524 1.68756,1.67524 3.7693,1.67524 2.08166,0 3.7693,-0.75 3.7693,-1.67524 z m -10.88909,-3.35049 v -3.35049 c -8e-5,0.92524 -1.68764,1.67525 -3.7693,1.67525 -2.08174,0 -3.76929,-0.75001 -3.76929,-1.67525 v 3.35049 c 0,0.92524 1.68755,1.67524 3.76929,1.67524 2.08175,0 3.7693,-0.75 3.7693,-1.67524 z"
         id="path2"
         style="fill:#666666;stroke-width:2.78509" /><path
         fill="#000000"
         fill-opacity="1"
         stroke-linejoin="round"
         d="m 234.49458,104.13407 c 2.08174,0 3.7693,0.75 3.7693,1.67524 0,0.92525 -1.68756,1.67525 -3.7693,1.67525 -2.08174,0 -3.7693,-0.75 -3.7693,-1.67525 v 3.35049 c 0,0.92523 1.68756,1.67524 3.7693,1.67524 2.08174,0 3.7693,-0.75001 3.7693,-1.67524 v -2.6556 l 4.73206,1.35929 c 0.65016,-0.23679 1.48158,-0.37894 2.38772,-0.37894 2.08174,0 3.7693,0.75001 3.7693,1.67525 0,0.92523 -1.68756,1.67524 -3.7693,1.67524 -2.08174,0 -3.7693,-0.75001 -3.7693,-1.67524 v 3.35048 c 0,0.92524 1.68756,1.67525 3.7693,1.67525 2.08174,0 3.7693,-0.75001 3.7693,-1.67525 v -2.87823 l 4.18811,1.20299 v 13.40195 l -11.30145,11.33261 -22.20343,-6.30688 v -13.40195 l 11.36553,-11.3852 0.58541,0.16819 c 0.68518,-0.31436 1.64501,-0.50969 2.70745,-0.50969 z m -12.98314,12.20257 v 11.72669 l 19.2653,5.47236 v -11.72671 z m 30.15439,7.90036 v -11.72202 l -8.37622,8.39925 v 11.72671 l 8.38082,-8.40394 z m -8.37622,-5.86335 v -3.35049 c -9e-5,0.92524 -1.68764,1.67524 -3.7693,1.67524 -2.08174,0 -3.7693,-0.75 -3.7693,-1.67524 v 3.35049 c 0,0.92524 1.68756,1.67524 3.7693,1.67524 2.08166,0 3.7693,-0.75 3.7693,-1.67524 z m -10.88909,-3.35049 v -3.35049 c -8e-5,0.92524 -1.68764,1.67525 -3.7693,1.67525 -2.08174,0 -3.76929,-0.75001 -3.76929,-1.67525 v 3.35049 c 0,0.92524 1.68755,1.67524 3.76929,1.67524 2.08175,0 3.7693,-0.75 3.7693,-1.67524 z"
         id="path3"
         style="fill:#666666;stroke-width:2.78509" /><path
         fill="#000000"
         fill-opacity="1"
         stroke-linejoin="round"
         d="m 276.32557,117.91369 c 2.08174,0 3.7693,0.75 3.7693,1.67524 0,0.92524 -1.68756,1.67524 -3.7693,1.67524 -2.08174,0 -3.7693,-0.75 -3.7693,-1.67524 v 3.3505 c 0,0.92523 1.68756,1.67524 3.7693,1.67524 2.08174,0 3.7693,-0.75001 3.7693,-1.67524 v -2.65561 l 4.73206,1.35929 c 0.65016,-0.23679 1.48158,-0.37894 2.38772,-0.37894 2.08174,0 3.7693,0.75001 3.7693,1.67526 0,0.92523 -1.68756,1.67524 -3.7693,1.67524 -2.08174,0 -3.7693,-0.75001 -3.7693,-1.67524 v 3.35048 c 0,0.92524 1.68756,1.67525 3.7693,1.67525 2.08174,0 3.7693,-0.75001 3.7693,-1.67525 v -2.87823 l 4.18811,1.20299 v 13.40194 l -11.30145,11.33261 -22.20343,-6.30688 v -13.40195 l 11.36553,-11.3852 0.58541,0.16819 c 0.68518,-0.31435 1.64501,-0.50969 2.70745,-0.50969 z m -12.98314,12.20256 v 11.7267 l 19.2653,5.47236 V 135.5886 Z m 30.15439,7.90036 v -11.722 l -8.37622,8.39925 v 11.7267 l 8.38082,-8.40395 z m -8.37622,-5.86335 v -3.35048 c -9e-5,0.92524 -1.68764,1.67524 -3.7693,1.67524 -2.08174,0 -3.7693,-0.75 -3.7693,-1.67524 v 3.35048 c 0,0.92524 1.68756,1.67524 3.7693,1.67524 2.08166,0 3.7693,-0.75 3.7693,-1.67524 z m -10.88909,-3.35048 v -3.35049 c -8e-5,0.92524 -1.68764,1.67525 -3.7693,1.67525 -2.08174,0 -3.76929,-0.75001 -3.76929,-1.67525 v 3.35049 c 0,0.92524 1.68755,1.67524 3.76929,1.67524 2.08175,0 3.7693,-0.75 3.7693,-1.67524 z"
         id="path4"
         style="fill:#666666;stroke-width:2.78509" /></g><path
       style="fill:none;stroke:#666666;stroke-width:4.3;stroke-dasharray:none;marker-end:url(#ConcaveTriangle)"
       d="m 318.13001,95.562619 h 58.43232"
       id="path5" /><path
       fill-rule="evenodd"
       clip-rule="evenodd"
       d="m 440.42038,58.507412 c 0.64904,-0.649005 1.5293,-1.013635 2.44717,-1.013635 h 27.68643 c 5.73421,0 10.38241,4.648379 10.38241,10.382412 v 55.372861 c 0,5.73421 -4.6482,10.38241 -10.38241,10.38241 h -41.52965 c -5.73403,0 -10.38241,-4.6482 -10.38241,-10.38241 V 81.719405 c 0,-0.917874 0.36463,-1.79813 1.01364,-2.447169 z m 30.1336,5.907973 h -24.22563 v 17.30402 c 0,1.911333 -1.5494,3.460804 -3.4608,3.460804 h -17.30402 v 38.068841 c 0,1.9114 1.54947,3.46081 3.4608,3.46081 h 41.52965 c 1.9114,0 3.46081,-1.54941 3.46081,-3.46081 V 67.876189 c 0,-1.911333 -1.54941,-3.460804 -3.46081,-3.460804 z m -40.09615,13.843216 h 8.94892 v -8.948912 z m 2.02731,20.764824 c 0,-1.911402 1.54947,-3.460804 3.4608,-3.460804 h 27.68643 c 1.91141,0 3.46081,1.549402 3.46081,3.460804 0,1.911405 -1.5494,3.460805 -3.46081,3.460805 h -27.68643 c -1.91133,0 -3.4608,-1.5494 -3.4608,-3.460805 z m 0,13.843215 c 0,-1.9114 1.54947,-3.4608 3.4608,-3.4608 h 27.68643 c 1.91141,0 3.46081,1.5494 3.46081,3.4608 0,1.9114 -1.5494,3.4608 -3.46081,3.4608 h -27.68643 c -1.91133,0 -3.4608,-1.5494 -3.4608,-3.4608 z"
       fill="#000000"
       id="path1-3"
       style="fill:#666666;stroke-width:5.51901;stroke-dasharray:none" /><g
       style="fill:none;stroke:#666666;stroke-width:0.866189;stroke-dasharray:none"
       id="g19"
       transform="matrix(4.316612,0,0,4.316612,197.41914,175.60323)"><path
         d="M 8,20 H 6 C 4.89543,20 4,19.1046 4,18 V 6 C 4,4.89543 4.89543,4 6,4 H 9 M 8,20 v -6 c 0,-0.5523 0.44772,-1 1,-1 h 6 c 0.5523,0 1,0.4477 1,1 v 6 m -8,0 h 8 m 0,0 h 2 c 1.1046,0 2,-0.8954 2,-2 V 8.82843 C 20,8.29799 19.7893,7.78929 19.4142,7.41421 L 16.5858,4.58579 C 16.2107,4.21071 15.702,4 15.1716,4 H 15 m 0,0 v 3 c 0,0.55228 -0.4477,1 -1,1 H 10 C 9.44772,8 9,7.55228 9,7 V 4 m 6,0 H 9"
         stroke="#000000"
         stroke-width="2"
         stroke-linecap="round"
         stroke-linejoin="round"
         id="path1-06"
         style="stroke:#666666;stroke-width:0.866189;stroke-dasharray:none" /></g><text
       xml:space="preserve"
       style="font-weight:bold;font-size:16.9333px;font-family:'IBM Plex Mono';-inkscape-font-specification:'IBM Plex Mono, Bold';text-align:center;letter-spacing:-0.0079375px;word-spacing:-0.0132292px;writing-mode:lr-tb;direction:ltr;text-anchor:middle;fill:#666666;stroke:none;stroke-width:4.30001;stroke-dasharray:none"
       x="38.354649"
       y="165.80644"
       id="text7"><tspan
         sodipodi:role="line"
         id="tspan7"
         style="fill:#666666;stroke:none;stroke-width:4.3"
         x="38.350677"
         y="165.80644">1.Definiëren</tspan></text><text
       xml:space="preserve"
       style="font-weight:bold;font-size:16.9333px;font-family:'IBM Plex Mono';-inkscape-font-specification:'IBM Plex Mono, Bold';text-align:center;letter-spacing:-0.0079375px;word-spacing:-0.0132292px;writing-mode:lr-tb;direction:ltr;text-anchor:middle;fill:#666666;stroke:none;stroke-width:4.30001;stroke-dasharray:none"
       x="249.45555"
       y="164.12158"
       id="text8"><tspan
         sodipodi:role="line"
         id="tspan8"
         style="fill:#666666;stroke:none;stroke-width:4.3"
         x="249.45158"
         y="164.12158">2. Archetypes</tspan></text><text
       xml:space="preserve"
       style="font-weight:bold;font-size:16.9333px;font-family:'IBM Plex Mono';-inkscape-font-specification:'IBM Plex Mono, Bold';text-align:center;letter-spacing:-0.0079375px;word-spacing:-0.0132292px;writing-mode:lr-tb;direction:ltr;text-anchor:middle;fill:#666666;stroke:none;stroke-width:4.30001;stroke-dasharray:none"
       x="450.00928"
       y="164.12158"
       id="text9"><tspan
         sodipodi:role="line"
         id="tspan9"
         style="fill:#666666;stroke:none;stroke-width:4.3"
         x="450.00531"
         y="164.12158">3. Template</tspan></text><text
       xml:space="preserve"
       style="font-weight:bold;font-size:16.9333px;font-family:'IBM Plex Mono';-inkscape-font-specification:'IBM Plex Mono, Bold';text-align:center;letter-spacing:-0.0079375px;word-spacing:-0.0132292px;writing-mode:lr-tb;direction:ltr;text-anchor:middle;fill:#666666;stroke:none;stroke-width:4.30001;stroke-dasharray:none"
       x="38.439316"
       y="296.24689"
       id="text10"><tspan
         sodipodi:role="line"
         id="tspan10"
         style="fill:#666666;stroke:none;stroke-width:4.3"
         x="38.435352"
         y="296.24689">4. Registreren</tspan></text><text
       xml:space="preserve"
       style="font-weight:bold;font-size:16.9333px;font-family:'IBM Plex Mono';-inkscape-font-specification:'IBM Plex Mono, Bold';text-align:center;letter-spacing:-0.0079375px;word-spacing:-0.0132292px;writing-mode:lr-tb;direction:ltr;text-anchor:middle;fill:#666666;stroke:none;stroke-width:4.30001;stroke-dasharray:none"
       x="249.37935"
       y="296.25534"
       id="text11"><tspan
         sodipodi:role="line"
         id="tspan11"
         style="fill:#666666;stroke:none;stroke-width:4.3"
         x="249.37538"
         y="296.25534">5. Opslaan</tspan></text><text
       xml:space="preserve"
       style="font-weight:bold;font-size:16.9333px;font-family:'IBM Plex Mono';-inkscape-font-specification:'IBM Plex Mono, Bold';text-align:center;letter-spacing:-0.0079375px;word-spacing:-0.0132292px;writing-mode:lr-tb;direction:ltr;text-anchor:middle;fill:#666666;stroke:none;stroke-width:4.30001;stroke-dasharray:none"
       x="449.98389"
       y="296.25534"
       id="text12"><tspan
         sodipodi:role="line"
         id="tspan12"
         style="fill:#666666;stroke:none;stroke-width:4.3"
         x="449.97992"
         y="296.25534">6. Ophalen</tspan></text><g
       style="fill:#666666;stroke-width:2.99671"
       id="g18"
       transform="matrix(1.2178087,0,0,1.2178087,414.4727,192.08612)"><g
         id="g17"
         style="fill:#666666;stroke-width:2.99671">
	<path
   d="M 50.949,12.187 49.588,10.826 40.084,1.321 C 40.083,1.32 40.083,1.32 40.082,1.32 L 39.312,0.549 C 38.957,0.195 38.486,0 37.985,0 H 8.963 C 7.776,0 6.5,0.916 6.5,2.926 V 39 55.537 56 c 0,0.837 0.841,1.652 1.836,1.909 0.051,0.014 0.1,0.033 0.152,0.043 C 8.644,57.983 8.803,58 8.963,58 h 40.074 c 0.16,0 0.319,-0.017 0.475,-0.048 0.052,-0.01 0.101,-0.029 0.152,-0.043 C 50.659,57.652 51.5,56.837 51.5,56 V 55.537 39 13.978 c 0,-0.767 -0.093,-1.334 -0.551,-1.791 z M 39.5,3.565 47.935,12 H 39.5 Z M 8.963,56 C 8.892,56 8.828,55.975 8.765,55.951 8.61,55.877 8.5,55.721 8.5,55.537 V 41 h 41 v 14.537 c 0,0.184 -0.11,0.34 -0.265,0.414 C 49.172,55.975 49.108,56 49.037,56 Z M 8.5,39 V 2.926 C 8.5,2.709 8.533,2 8.963,2 H 37.558 C 37.525,2.126 37.5,2.256 37.5,2.391 V 13.78 C 36.968,13.3 36.271,13 35.5,13 c -0.553,0 -1,0.448 -1,1 0,0.552 0.447,1 1,1 0.552,0 1,0.449 1,1 v 4 c 0,1.2 0.542,2.266 1.382,3 -0.84,0.734 -1.382,1.8 -1.382,3 v 4 c 0,0.551 -0.448,1 -1,1 -0.553,0 -1,0.448 -1,1 0,0.552 0.447,1 1,1 1.654,0 3,-1.346 3,-3 v -4 c 0,-1.103 0.897,-2 2,-2 0.553,0 1,-0.448 1,-1 0,-0.552 -0.447,-1 -1,-1 -1.103,0 -2,-0.897 -2,-2 v -4 c 0,-0.771 -0.301,-1.468 -0.78,-2 h 11.389 c 0.135,0 0.265,-0.025 0.391,-0.058 0,0.015 10e-4,0.021 10e-4,0.036 V 39 Z"
   id="path12"
   style="fill:#666666;stroke-width:2.99671" />
	<path
   d="m 16.354,51.43 c -0.019,0.446 -0.171,0.764 -0.458,0.95 -0.287,0.186 -0.672,0.28 -1.155,0.28 -0.191,0 -0.396,-0.022 -0.615,-0.068 -0.219,-0.046 -0.429,-0.098 -0.629,-0.157 -0.2,-0.059 -0.385,-0.123 -0.554,-0.191 -0.169,-0.068 -0.299,-0.135 -0.39,-0.198 l -0.697,1.107 c 0.183,0.137 0.405,0.26 0.67,0.369 0.265,0.109 0.54,0.207 0.827,0.294 0.287,0.087 0.565,0.15 0.834,0.191 0.269,0.041 0.504,0.062 0.704,0.062 0.401,0 0.791,-0.039 1.169,-0.116 0.378,-0.077 0.713,-0.214 1.005,-0.41 0.292,-0.196 0.524,-0.456 0.697,-0.779 0.173,-0.323 0.26,-0.723 0.26,-1.196 V 43.72 h -1.668 z"
   id="path13"
   style="fill:#666666;stroke-width:2.99671" />
	<path
   d="m 25.083,49.064 c -0.314,-0.228 -0.654,-0.422 -1.019,-0.581 -0.365,-0.159 -0.702,-0.323 -1.012,-0.492 -0.31,-0.169 -0.569,-0.364 -0.779,-0.588 -0.21,-0.224 -0.314,-0.518 -0.314,-0.882 0,-0.146 0.036,-0.299 0.109,-0.458 0.073,-0.159 0.173,-0.303 0.301,-0.431 0.128,-0.128 0.273,-0.234 0.438,-0.321 0.165,-0.087 0.337,-0.139 0.52,-0.157 0.328,-0.027 0.597,-0.032 0.807,-0.014 0.21,0.018 0.378,0.05 0.506,0.096 0.128,0.046 0.226,0.091 0.294,0.137 0.068,0.046 0.13,0.082 0.185,0.109 0.009,-0.009 0.036,-0.055 0.082,-0.137 0.046,-0.082 0.101,-0.185 0.164,-0.308 0.063,-0.123 0.132,-0.255 0.205,-0.396 0.073,-0.141 0.137,-0.271 0.191,-0.39 -0.265,-0.173 -0.61,-0.299 -1.039,-0.376 -0.429,-0.077 -0.853,-0.116 -1.271,-0.116 -0.41,0 -0.8,0.063 -1.169,0.191 -0.369,0.128 -0.692,0.313 -0.971,0.554 -0.279,0.241 -0.499,0.535 -0.663,0.882 -0.164,0.347 -0.248,0.744 -0.248,1.19 0,0.492 0.104,0.902 0.314,1.23 0.21,0.328 0.474,0.613 0.793,0.854 0.319,0.241 0.661,0.451 1.025,0.629 0.364,0.178 0.704,0.355 1.019,0.533 0.315,0.178 0.576,0.376 0.786,0.595 0.21,0.219 0.314,0.483 0.314,0.793 0,0.511 -0.148,0.896 -0.444,1.155 -0.296,0.259 -0.723,0.39 -1.278,0.39 -0.183,0 -0.378,-0.019 -0.588,-0.055 -0.21,-0.036 -0.419,-0.084 -0.629,-0.144 -0.21,-0.06 -0.412,-0.123 -0.608,-0.191 -0.196,-0.068 -0.357,-0.139 -0.485,-0.212 l -0.287,1.176 c 0.155,0.137 0.34,0.253 0.554,0.349 0.214,0.096 0.439,0.171 0.677,0.226 0.237,0.055 0.472,0.094 0.704,0.116 0.232,0.022 0.458,0.034 0.677,0.034 0.511,0 0.966,-0.077 1.367,-0.232 0.401,-0.155 0.738,-0.362 1.012,-0.622 0.274,-0.26 0.485,-0.561 0.636,-0.902 0.151,-0.341 0.226,-0.695 0.226,-1.06 0,-0.538 -0.104,-0.978 -0.314,-1.319 -0.21,-0.341 -0.474,-0.627 -0.788,-0.855 z"
   id="path14"
   style="fill:#666666;stroke-width:2.99671" />
	<path
   d="m 34.872,45.072 c -0.378,-0.429 -0.82,-0.754 -1.326,-0.978 -0.506,-0.224 -1.06,-0.335 -1.661,-0.335 -0.601,0 -1.155,0.111 -1.661,0.335 -0.506,0.224 -0.948,0.549 -1.326,0.978 -0.378,0.429 -0.675,0.964 -0.889,1.606 -0.214,0.642 -0.321,1.388 -0.321,2.235 0,0.847 0.107,1.595 0.321,2.242 0.214,0.647 0.511,1.185 0.889,1.613 0.378,0.428 0.82,0.752 1.326,0.971 0.506,0.219 1.06,0.328 1.661,0.328 0.601,0 1.155,-0.109 1.661,-0.328 0.506,-0.219 0.948,-0.542 1.326,-0.971 0.378,-0.429 0.675,-0.966 0.889,-1.613 0.214,-0.647 0.321,-1.395 0.321,-2.242 0,-0.847 -0.107,-1.593 -0.321,-2.235 -0.214,-0.642 -0.511,-1.177 -0.889,-1.606 z m -0.677,5.626 c -0.137,0.487 -0.326,0.882 -0.567,1.183 -0.241,0.301 -0.515,0.518 -0.82,0.649 -0.305,0.131 -0.627,0.198 -0.964,0.198 -0.328,0 -0.641,-0.07 -0.937,-0.212 -0.296,-0.142 -0.561,-0.364 -0.793,-0.67 -0.232,-0.306 -0.415,-0.699 -0.547,-1.183 -0.132,-0.484 -0.203,-1.066 -0.212,-1.75 0.009,-0.702 0.082,-1.294 0.219,-1.777 0.137,-0.483 0.326,-0.877 0.567,-1.183 0.241,-0.306 0.515,-0.521 0.82,-0.649 0.305,-0.128 0.627,-0.191 0.964,-0.191 0.328,0 0.641,0.068 0.937,0.205 0.296,0.137 0.561,0.36 0.793,0.67 0.232,0.31 0.415,0.704 0.547,1.183 0.132,0.479 0.203,1.06 0.212,1.743 -0.009,0.702 -0.082,1.297 -0.219,1.784 z"
   id="path15"
   style="fill:#666666;stroke-width:2.99671" />
	<polygon
   points="40.061,54 40.061,47.055 44.012,54 45.68,54 45.68,43.924 44.012,43.924 44.012,50.869 40.061,43.924 38.393,43.924 38.393,54 "
   id="polygon15"
   style="fill:#666666;stroke-width:2.99671" />
	<path
   d="m 20.5,20 v -4 c 0,-0.551 0.448,-1 1,-1 0.553,0 1,-0.448 1,-1 0,-0.552 -0.447,-1 -1,-1 -1.654,0 -3,1.346 -3,3 v 4 c 0,1.103 -0.897,2 -2,2 -0.553,0 -1,0.448 -1,1 0,0.552 0.447,1 1,1 1.103,0 2,0.897 2,2 v 4 c 0,1.654 1.346,3 3,3 0.553,0 1,-0.448 1,-1 0,-0.552 -0.447,-1 -1,-1 -0.552,0 -1,-0.449 -1,-1 v -4 c 0,-1.2 -0.542,-2.266 -1.382,-3 0.84,-0.734 1.382,-1.8 1.382,-3 z"
   id="path16"
   style="fill:#666666;stroke-width:2.99671" />
	<circle
   cx="28.5"
   cy="19.5"
   r="1.5"
   id="circle16"
   style="fill:#666666;stroke-width:2.99671" />
	<path
   d="m 28.5,25 c -0.553,0 -1,0.448 -1,1 v 3 c 0,0.552 0.447,1 1,1 0.553,0 1,-0.448 1,-1 v -3 c 0,-0.552 -0.447,-1 -1,-1 z"
   id="path17"
   style="fill:#666666;stroke-width:2.99671" />
</g></g><path
       style="fill:none;stroke:#666666;stroke-width:4.3;stroke-dasharray:none;marker-end:url(#ConcaveTriangle)"
       d="m 318.13001,227.40258 h 58.43232"
       id="path18" /><path
       style="fill:none;stroke:#666666;stroke-width:4.3;stroke-dasharray:none;marker-end:url(#ConcaveTriangle)"
       d="m 111.03864,227.40258 h 58.43232"
       id="path19" /><g
       id="g1"
       transform="matrix(0.16750656,0,0,0.16750656,-4.7471745,184.52073)"
       style="fill:#666666;stroke-width:2.46803">
	<path
   class="st0"
   d="M 507.34,98.426 C 502.071,86.284 492.95,75.828 481.392,66.814 464.005,53.304 440.806,42.76 413.673,35.35 386.539,27.966 355.438,23.816 322.335,23.816 271.888,23.849 226.132,33.382 191.87,49.55 c -17.132,8.126 -31.465,17.922 -42.002,29.67 -5.252,5.877 -9.541,12.282 -12.545,19.206 -2.997,6.924 -4.668,14.39 -4.66,22.03 v 30.08 l 26.162,19.856 v -4.346 c 15.132,13.838 36.379,24.877 61.792,33.052 29.299,9.36 64.204,14.736 101.718,14.736 50.028,-0.024 95.371,-9.508 129.058,-25.421 13.55,-6.421 25.126,-13.93 34.444,-22.482 v 58.845 c -1.86,3.992 -4.511,7.993 -8.1,12.027 -11.591,13.056 -32.583,25.355 -59.652,33.958 -27.067,8.661 -60.12,13.814 -95.75,13.806 -9.278,0.008 -18.3,-0.444 -27.166,-1.111 l -22.886,17.37 c 15.946,2.166 32.698,3.368 50.052,3.368 50.028,-0.025 95.371,-9.516 129.058,-25.422 13.55,-6.421 25.126,-13.928 34.444,-22.482 v 58.845 c -1.86,3.992 -4.511,7.994 -8.1,12.035 -11.591,13.057 -32.583,25.348 -59.652,33.959 -27.067,8.66 -60.12,13.813 -95.75,13.806 -46.232,0.025 -88.061,-8.751 -118.125,-22.441 l -17.551,13.319 c 10.184,5.343 21.569,10.019 33.958,14.004 29.299,9.36 64.204,14.735 101.718,14.744 50.028,-0.024 95.371,-9.516 129.058,-25.421 13.55,-6.422 25.126,-13.938 34.444,-22.491 v 44.891 c 0,3.894 -0.806,7.689 -2.502,11.648 -2.964,6.891 -8.941,14.3 -18.013,21.355 -13.583,10.611 -33.9,20.186 -58.531,26.87 -24.623,6.701 -53.552,10.62 -84.455,10.612 -47.08,0.041 -89.625,-9.146 -119.269,-23.224 -14.835,-6.997 -26.36,-15.213 -33.687,-23.454 -3.688,-4.116 -6.339,-8.216 -8.043,-12.159 -1.704,-3.96 -2.503,-7.754 -2.511,-11.648 v -4.602 l -24.276,18.423 c 0.741,2.8 1.63,5.557 2.774,8.208 5.276,12.142 14.39,22.597 25.948,31.62 17.395,13.51 40.593,24.055 67.727,31.464 27.133,7.384 58.235,11.525 91.337,11.533 50.456,-0.041 96.195,-9.565 130.457,-25.742 17.14,-8.124 31.464,-17.913 42.001,-29.669 5.253,-5.87 9.55,-12.275 12.546,-19.206 2.997,-6.915 4.676,-14.391 4.66,-22.03 V 120.456 c 0.016,-7.64 -1.663,-15.107 -4.66,-22.03 z m -21.503,35.983 c -1.86,3.993 -4.511,8.002 -8.1,12.036 -11.591,13.064 -32.583,25.355 -59.652,33.966 -27.067,8.66 -60.12,13.813 -95.75,13.806 -47.5,0.024 -90.448,-9.196 -120.669,-23.536 -15.123,-7.146 -26.994,-15.552 -34.732,-24.236 -3.59,-4.034 -6.249,-8.043 -8.11,-12.028 v -13.962 c 0.008,-3.895 0.807,-7.681 2.511,-11.641 2.964,-6.899 8.932,-14.3 18.012,-21.363 13.576,-10.611 33.892,-20.185 58.524,-26.862 24.631,-6.709 53.559,-10.62 84.463,-10.612 47.081,-0.041 89.625,9.146 119.262,23.224 14.835,6.989 26.359,15.205 33.686,23.454 3.688,4.116 6.338,8.208 8.052,12.159 1.695,3.96 2.502,7.746 2.502,11.641 v 13.954 z"
   id="path1-0"
   style="fill:#666666;stroke-width:2.46803" />
	<polygon
   class="st0"
   points="88.242,164.564 88.242,224.207 0,224.207 0,333.12 88.242,333.12 88.242,392.763 238.572,278.663 "
   id="polygon1"
   style="fill:#666666;stroke-width:2.46803" />
</g><g
       style="fill:#666666"
       id="g20"
       transform="matrix(0.09334647,0,0,0.09334647,-9.2612223,47.689042)"><path
         d="m 579.589,215.017 h -46.08 v -46.08 c 0,-5.652 -4.588,-10.24 -10.24,-10.24 h -30.72 c -5.652,0 -10.24,4.588 -10.24,10.24 v 46.08 h -46.08 c -5.652,0 -10.24,4.588 -10.24,10.24 v 30.72 c 0,5.652 4.588,10.24 10.24,10.24 h 46.08 v 46.08 c 0,5.652 4.588,10.24 10.24,10.24 h 30.72 c 5.652,0 10.24,-4.588 10.24,-10.24 v -46.08 h 46.08 c 5.652,0 10.24,-4.588 10.24,-10.24 v -30.72 c 0,-5.652 -4.588,-10.24 -10.24,-10.24 z"
         id="path1-5"
         style="fill:#666666" /><path
         d="m 354.309,387.857 v -244.5 c 0,-16.962 13.758,-30.72 30.72,-30.72 h 245.76 c 16.962,0 30.72,13.758 30.72,30.72 v 244.5 h 40.96 v -244.5 c 0,-39.583 -32.097,-71.68 -71.68,-71.68 h -245.76 c -39.583,0 -71.68,32.097 -71.68,71.68 v 244.5 z"
         id="path2-5"
         style="fill:#666666" /><path
         d="m 882.36,913.081 c 16.962,0 30.72,-13.758 30.72,-30.72 V 439.696 c 0,-16.962 -13.758,-30.72 -30.72,-30.72 H 133.12 c -16.962,0 -30.72,13.758 -30.72,30.72 v 442.665 c 0,16.962 13.758,30.72 30.72,30.72 z m 0,40.96 H 133.12 c -39.583,0 -71.68,-32.097 -71.68,-71.68 V 439.696 c 0,-39.583 32.097,-71.68 71.68,-71.68 h 749.24 c 39.583,0 71.68,32.097 71.68,71.68 v 442.665 c 0,39.583 -32.097,71.68 -71.68,71.68 z"
         id="path3-4"
         style="fill:#666666" /><path
         d="m 606.213,711.484 c 0,-49.011 -39.734,-88.74 -88.75,-88.74 -49.013,0 -88.74,39.727 -88.74,88.74 v 201.39 h 177.49 z m -218.45,242.35 v -242.35 c 0,-71.635 58.065,-129.7 129.7,-129.7 71.636,0 129.71,58.067 129.71,129.7 v 242.35 z"
         id="path4-7"
         style="fill:#666666" /></g></g><style
     type="text/css"
     id="style1">
	.st0{fill:#000000;}
</style></svg>
