<?xml version="1.0" encoding="UTF-8" standalone="no"?>
<!-- Generator: Adobe Illustrator 28.1.0, SVG Export Plug-In . SVG Version: 6.00 Build 0)  -->

<svg
   version="1.1"
   id="Logo"
   x="0px"
   y="0px"
   viewBox="0 0 389.13837 401.62574"
   xml:space="preserve"
   sodipodi:docname="logo.svg"
   width="389.13837"
   height="401.62573"
   inkscape:version="1.4 (e7c3feb100, 2024-10-09)"
   xmlns:inkscape="http://www.inkscape.org/namespaces/inkscape"
   xmlns:sodipodi="http://sodipodi.sourceforge.net/DTD/sodipodi-0.dtd"
   xmlns="http://www.w3.org/2000/svg"
   xmlns:svg="http://www.w3.org/2000/svg"><defs
   id="defs7" /><sodipodi:namedview
   id="namedview7"
   pagecolor="#ffffff"
   bordercolor="#000000"
   borderopacity="0.25"
   inkscape:showpageshadow="2"
   inkscape:pageopacity="0.0"
   inkscape:pagecheckerboard="0"
   inkscape:deskcolor="#d1d1d1"
   inkscape:zoom="0.99489924"
   inkscape:cx="213.58947"
   inkscape:cy="324.15343"
   inkscape:window-width="2560"
   inkscape:window-height="1371"
   inkscape:window-x="0"
   inkscape:window-y="0"
   inkscape:window-maximized="1"
   inkscape:current-layer="Logo" />
<style
   type="text/css"
   id="style1">
	.st0{fill:#EE7F00;}
	.st1{fill:#FFFFFF;}
	.st2{fill:none;}
</style>

<g
   id="g4"
   transform="matrix(0.70672615,0,0,0.70672615,80.99829,5.4207644)"
   style="stroke-width:1.26932">
	<path
   class="st0"
   d="m 55.6,163.1 c 26.7,-0.8 56.7,-5.5 63.8,-24.4 0.7,-8.2 -9.1,-14.9 -19.2,-19.5 -12.7,-4 -28.9,-3.2 -40,-0.2 -5,-1.9 -10.4,-5.4 -13.4,-8.7 21.1,-10.3 46.8,-19 77.9,-10.9 13,2.8 24.5,8.6 36,14.4 12.7,-6.7 20.9,-16.6 26.5,-26.3 C 194.5,73.6 184.1,57.8 166.7,46.8 152.7,36 134.9,30.7 115.5,32.4 l -15,1.8 -7.7,-9.4 C 115.1,12.4 152,11.5 181.6,21 c 20.4,6.7 40.2,19.6 55,31.9 8.4,-5.5 17,-11.7 26.3,-17.2 C 235,13.4 199.8,0 161.4,0 72.3,0 0,72.3 0,161.4 c 0,0.2 0,0.3 0,0.5 18.8,0.7 37.9,1.9 55.6,1.2 z"
   id="path1"
   style="stroke-width:1.26932" />
	<path
   class="st0"
   d="m 8.7,177 c -2.6,-0.7 -5.3,-1.3 -8.1,-1.8 7,82.7 76.3,147.6 160.8,147.6 14.2,0 28,-1.9 41.2,-5.3 C 164.6,263.3 96.6,202 8.7,177 Z"
   id="path2"
   style="stroke-width:1.26932" />
	<path
   class="st0"
   d="m 302.4,240 c -44.1,-15 -93.1,-23.4 -141.8,-28.7 0,0 37.6,27.1 98.6,78.5 17.6,-13.4 32.3,-30.4 43.2,-49.8 z"
   id="path3"
   style="stroke-width:1.26932" />
	<path
   class="st0"
   d="m 207.9,194.1 c 51.4,-6.3 96.4,-38.1 113.5,-53.8 -2.9,-22 -10.2,-42.6 -21,-60.9 -87.1,85.6 -160.8,98.1 -212.7,102.5 0,0 63.2,19.2 120.2,12.2 z"
   id="path4"
   style="stroke-width:1.26932" />
</g>

<text
   xml:space="preserve"
   style="font-style:normal;font-variant:normal;font-weight:bold;font-stretch:normal;font-size:57.4118px;font-family:'IBM Plex Mono';-inkscape-font-specification:'IBM Plex Mono, Bold';font-variant-ligatures:normal;font-variant-caps:normal;font-variant-numeric:normal;font-variant-east-asian:normal;text-align:center;letter-spacing:-0.0269118px;word-spacing:-0.044853px;writing-mode:lr-tb;direction:ltr;text-anchor:middle;fill:#666666;stroke-width:0.339046"
   x="195.28883"
   y="313.6163"
   id="text1"><tspan
     sodipodi:role="line"
     id="tspan1"
     x="195.28883"
     y="313.6163"
     style="stroke-width:0.339046">Workshop</tspan><tspan
     sodipodi:role="line"
     x="195.27538"
     y="385.38104"
     id="tspan2"
     style="stroke-width:0.339046">openEHR</tspan></text><rect
   style="fill:none;stroke-width:0"
   id="rect1"
   width="389.13837"
   height="401.62573"
   x="0"
   y="0" /></svg>
